<?xml version="1.0" encoding="UTF-8"?>
<svg version="1.1" xmlns="http://www.w3.org/2000/svg" width="469" height="354">
<path d="M0 0 C154.77 0 309.54 0 469 0 C469 116.82 469 233.64 469 354 C314.23 354 159.46 354 0 354 C0 237.18 0 120.36 0 0 Z " fill="#FDFDFD" transform="translate(0,0)"/>
<path d="M0 0 C1.06250977 0.01450195 1.06250977 0.01450195 2.14648438 0.02929688 C23.06378262 0.50949197 38.62370777 13.2232542 52.56640625 27.6875 C54.28432171 29.40972101 56.08915643 30.98134273 57.9375 32.5625 C61.14833755 35.32618029 64.14767165 38.23619596 67.125 41.25 C70.53867127 44.6998221 74.01673494 47.96077281 77.69921875 51.1171875 C81.23270683 54.22392581 84.67849886 57.42235318 88.125 60.625 C88.80908936 61.25696289 89.49317871 61.88892578 90.19799805 62.54003906 C90.83390869 63.13268555 91.46981934 63.72533203 92.125 64.3359375 C92.7025 64.8726709 93.28 65.4094043 93.875 65.96240234 C95.125 67.25 95.125 67.25 95.125 68.25 C94.12533203 68.36214844 94.12533203 68.36214844 93.10546875 68.4765625 C82.06915168 70.05097417 73.68456021 75.33367914 65.125 82.25 C59.68947023 77.43821954 54.34564749 72.59398934 49.3046875 67.3671875 C47.37557893 65.49339387 45.40156597 63.73061771 43.37109375 61.96875 C39.24149315 58.38181516 35.27453028 54.64479844 31.3125 50.875 C20.65550604 40.25684223 20.65550604 40.25684223 8.125 32.25 C8.125 31.59 8.125 30.93 8.125 30.25 C25.86970067 25.12781836 41.78254258 27.63756023 58.125 36.25 C43.79898505 27.02683551 28.14272502 20.44980852 10.859375 23.90234375 C-5.4537942 28.40586084 -16.65487225 39.81017968 -28.15917969 51.56640625 C-29.8936576 53.26830717 -31.69389464 54.84181372 -33.54296875 56.41796875 C-38.03435293 60.324974 -42.20562695 64.50468209 -46.375 68.75 C-51.0743163 73.53491405 -55.8206238 78.15588067 -60.90576172 82.53027344 C-64.26119844 85.4605606 -67.4607643 88.55466627 -70.6875 91.625 C-76.0539042 96.69251115 -81.47415975 101.55401855 -87.25 106.15234375 C-90.09044526 108.42216385 -92.85431699 110.77065633 -95.625 113.125 C-127.73332895 139.88194079 -168.51922319 164.97056397 -211.875 161.25 C-231.72165943 158.62813236 -249.73605216 146.79483968 -261.875 131.25 C-266.22499351 124.86189764 -269.94039035 118.40648673 -272.875 111.25 C-270.40045324 112.47161169 -267.95434031 113.7343889 -265.51171875 115.01953125 C-241.73681027 127.39605029 -215.14680575 132.09858963 -188.875 124.25 C-188.22192871 124.06727539 -187.56885742 123.88455078 -186.89599609 123.69628906 C-161.14253254 116.41332677 -137.83669296 102.64087936 -116.875 86.25 C-115.29468052 85.05883419 -113.71436086 83.86766863 -112.1340332 82.67651367 C-101.12289944 74.32726761 -90.79119128 65.1993622 -80.65625 55.81640625 C-78.16677782 53.5192388 -75.65320421 51.25431542 -73.125 49 C-68.68989736 45.02124233 -64.34151489 40.95511877 -60 36.875 C-58.61072041 35.5715684 -57.22139792 34.26818253 -55.83203125 32.96484375 C-53.94998312 31.19921097 -52.06863348 29.43295413 -50.19287109 27.66064453 C-36.17546823 14.42614022 -20.48441679 -0.29573268 0 0 Z " fill="#2A55AF" transform="translate(307.875,93.75)"/>
<path d="M0 0 C1.36586971 1.00512088 2.72138975 2.02457353 4.0625 3.0625 C5.09375 3.784375 6.125 4.50625 7.1875 5.25 C15.74691056 12.73948424 20.32987063 24.55809909 21.4133606 35.65640259 C21.52111057 39.48160618 21.51338101 43.2870686 21.453125 47.11328125 C21.44564006 48.50716834 21.43995783 49.90106615 21.43597412 51.29496765 C21.42089429 54.91680323 21.38177226 58.53796986 21.3371582 62.1595459 C21.29581766 65.87385007 21.27788143 69.58826515 21.2578125 73.30273438 C21.21525446 80.55632605 21.14505699 87.80923308 21.0625 95.0625 C14.4625 95.0625 7.8625 95.0625 1.0625 95.0625 C1.06362793 93.1458252 1.06475586 91.22915039 1.06591797 89.25439453 C1.06263407 82.88792558 1.03165617 76.52205045 0.9822216 70.15577888 C0.95327457 66.29965359 0.9350943 62.44413119 0.94238281 58.58789062 C0.9490198 54.85915061 0.92624774 51.13159733 0.88394547 47.40310287 C0.87289103 45.98795681 0.87204431 44.57268924 0.88207626 43.15753555 C0.93877441 33.97477433 0.02447039 27.29286948 -5.9375 20.0625 C-8.45035268 17.77153014 -8.45035268 17.77153014 -11.125 16.5 C-11.96417969 16.04496094 -12.80335938 15.58992188 -13.66796875 15.12109375 C-19.74630978 12.28592952 -26.87197281 11.84018464 -33.328125 13.78125 C-39.96579787 16.92274403 -44.1521361 21.84368788 -47.9375 28.0625 C-49.030428 31.341284 -49.09533872 33.82534411 -49.14282227 37.27807617 C-49.16300415 38.57708862 -49.18318604 39.87610107 -49.20397949 41.21447754 C-49.22074766 42.59480642 -49.23739092 43.97513682 -49.25390625 45.35546875 C-49.27255737 46.61057251 -49.2912085 47.86567627 -49.3104248 49.15881348 C-49.37882137 53.85580274 -49.43890688 58.55291006 -49.5 63.25 C-49.644375 73.748125 -49.78875 84.24625 -49.9375 95.0625 C-89.2075 95.0625 -128.4775 95.0625 -168.9375 95.0625 C-166.42091599 92.54591599 -165.08841759 91.46069441 -162.05078125 89.96875 C-161.28515869 89.58388428 -160.51953613 89.19901855 -159.73071289 88.80249023 C-158.91207764 88.39329346 -158.09344238 87.98409668 -157.25 87.5625 C-147.91419241 82.77151107 -139.40144723 77.24285751 -130.9375 71.0625 C-129.88046875 70.30066406 -128.8234375 69.53882813 -127.734375 68.75390625 C-121.27958764 64.01419983 -115.15475699 58.94982033 -109.08203125 53.73828125 C-106.29015179 51.3468172 -103.43525785 49.04395034 -100.5625 46.75 C-94.61428411 41.91327555 -89.07561317 36.66932479 -83.50390625 31.41015625 C-80.6518134 28.72022504 -77.75159784 26.09500834 -74.8125 23.5 C-71.46337649 20.52300133 -68.30100727 17.42130862 -65.17553711 14.21484375 C-47.39398472 -3.98384836 -24.01722586 -15.56895546 0 0 Z " fill="#2B56B1" transform="translate(333.9375,159.9375)"/>
<path d="M0 0 C-0.57733915 5.6634221 -2.70616368 10.27163948 -5.0625 15.375 C-5.43955078 16.20644531 -5.81660156 17.03789062 -6.20507812 17.89453125 C-7.13043356 19.93265588 -8.0621837 21.9675867 -9 24 C-14.50952497 23.16114375 -19.20053662 20.76948609 -24.234375 18.47265625 C-32.00800122 15.24028458 -39.71362311 14.63647612 -48.0625 14.625 C-49.47499023 14.58826172 -49.47499023 14.58826172 -50.91601562 14.55078125 C-58.49517089 14.51913551 -63.8900136 16.12326258 -69.5 21.3125 C-71.47737793 24.85530212 -71.57180319 26.99737768 -71 31 C-64.62565226 40.6349588 -51.00213351 41.76852916 -40.45874023 44.05688477 C-13.13378009 50.0878488 -13.13378009 50.0878488 -5 58 C-4.67 58.99 -4.34 59.98 -4 61 C-7.37345103 62.94020625 -10.74903202 64.87667709 -14.125 66.8125 C-15.55199219 67.63331055 -15.55199219 67.63331055 -17.0078125 68.47070312 C-19.6649699 69.99303288 -22.33165988 71.49739297 -25 73 C-26.11117187 73.64324219 -27.22234375 74.28648437 -28.3671875 74.94921875 C-31.55634452 76.22204255 -32.7577486 76.03517665 -36 75 C-37.1446875 74.66484375 -38.289375 74.3296875 -39.46875 73.984375 C-40.81267876 73.5735009 -42.15641742 73.16200469 -43.5 72.75 C-50.21738645 70.71707749 -56.96896631 69.04954877 -63.8125 67.5 C-79.21074035 63.93184456 -92.25576258 58.90477098 -101 45 C-105.35714106 37.60371428 -105.25370625 26.94755295 -103.19921875 18.83984375 C-99.10806224 7.94415202 -91.30824037 -0.61737202 -81 -6 C-56.84177202 -16.71334046 -22.30737147 -14.87158098 0 0 Z " fill="#2A56AF" transform="translate(168,124)"/>
<path d="M0 0 C1.06553101 0.01740234 1.06553101 0.01740234 2.15258789 0.03515625 C11.29891264 0.32101174 16.44762304 2.78407036 23.0703125 9.0859375 C29.05912747 15.75788726 30.94678754 22.25078222 30.53125 31.1640625 C28.58673618 46.53320054 18.15873717 61.06355847 8.125 72.375 C6.93597549 73.76953492 5.74826381 75.16519147 4.5625 76.5625 C3.758125 77.490625 2.95375 78.41875 2.125 79.375 C-10.72331439 74.31799754 -20.44064606 53.01486628 -25.78125 41.1171875 C-28.62660822 33.98346796 -29.20615155 26.01779689 -27.07421875 18.58203125 C-22.10359028 7.56465886 -12.25075688 -0.25495249 0 0 Z " fill="#2A55AE" transform="translate(403.875,174.625)"/>
<path d="M0 0 C3.88690598 1.99898022 6.39363397 4.9540594 8 9 C8.23974502 13.46724889 7.53895094 17.09533235 5.25 20.9375 C1.78218186 24.1163333 -0.7879917 24.86778091 -5.4375 25.375 C-9.77324712 24.91860557 -11.71260746 23.83911174 -15 21 C-17.64201025 16.94891762 -18.70236884 13.8162435 -18 9 C-13.6180227 1.01854135 -8.94638556 -1.52398997 0 0 Z " fill="#F5F9FA" transform="translate(410,191)"/>
<path d="M0 0 C3 1 3 1 4.15423584 2.78170776 C7.34961638 10.33828301 7.52143541 17.19302974 7.390625 25.3203125 C7.38314639 26.6736466 7.37746113 28.02699168 7.37347412 29.38034058 C7.35834469 32.90851786 7.31917698 36.43601576 7.2746582 39.96392822 C7.23342762 43.57742121 7.2154044 47.1910261 7.1953125 50.8046875 C7.15266659 57.87009299 7.08242476 64.93493009 7 72 C12.28 72 17.56 72 23 72 C23 51.54 23 31.08 23 10 C23.66 10.33 24.32 10.66 25 11 C25 31.79 25 52.58 25 74 C18.4 74 11.8 74 5 74 C4.9906543 72.06761475 4.98130859 70.13522949 4.97167969 68.14428711 C4.93608209 61.74193902 4.88223971 55.33994503 4.81609726 48.93784237 C4.77667757 45.05823575 4.74446243 41.17885422 4.72900391 37.29907227 C4.7138005 33.55107342 4.67929114 29.8036936 4.63169098 26.05597115 C4.61691484 24.62998413 4.60896115 23.2039087 4.60811615 21.77784538 C4.61455198 11.19796609 4.61455198 11.19796609 0 2 C0 1.34 0 0.68 0 0 Z " fill="#5474AA" transform="translate(330,181)"/>
<path d="M0 0 C0.33 0 0.66 0 1 0 C1 19.47 1 38.94 1 59 C-37.28 59 -75.56 59 -115 59 C-112.05304526 56.05304526 -109.7949346 54.61486579 -106 53 C-105.34 53.33 -104.68 53.66 -104 54 C-104.99 54.99 -105.98 55.98 -107 57 C-71.69 57.33 -36.38 57.66 0 58 C0 38.86 0 19.72 0 0 Z " fill="#254C9A" transform="translate(282,195)"/>
<path d="M0 0 C3.5625 0.5 3.5625 0.5 6.0625 2.0625 C7.5625 4.5 7.5625 4.5 7.5625 8.0625 C6.5625 11.5 6.5625 11.5 4.8125 13.4375 C2.06758782 14.73370853 0.56175788 15.02487013 -2.4375 14.5 C-4.75 12.875 -4.75 12.875 -6.4375 10.5 C-6.92496608 7.15737548 -6.75315201 5.20557508 -5.375 2.125 C-3.4375 0.5 -3.4375 0.5 0 0 Z " fill="#2E57AA" transform="translate(299.4375,208.5)"/>
<path d="M0 0 C-10.395 0.495 -10.395 0.495 -21 1 C-21 1.99 -21 2.98 -21 4 C-20.443125 4.226875 -19.88625 4.45375 -19.3125 4.6875 C-16.36753316 6.35896766 -14.31843456 8.55276352 -12 11 C-15.55151105 11 -15.93432729 10.45534787 -18.4375 8.125 C-20.83489194 5.90459672 -23.01648949 4.35077619 -26 3 C-26 2.34 -26 1.68 -26 1 C-8.24836601 -4.12418301 -8.24836601 -4.12418301 0 0 Z " fill="#4E6CA1" transform="translate(342,123)"/>
<path d="M0 0 C0.33 0.99 0.66 1.98 1 3 C-0.375 4.5 -0.375 4.5 -2 6 C-2.66 6 -3.32 6 -4 6 C-4.26554687 6.59039062 -4.53109375 7.18078125 -4.8046875 7.7890625 C-8.3232798 14.29730838 -15.08638046 18.80670615 -21 23 C-21.66 22.67 -22.32 22.34 -23 22 C-19.47299715 18.3738002 -15.90032831 14.86075245 -12.0625 11.5625 C-7.82750398 7.91592808 -3.90306016 3.99648447 0 0 Z " fill="#30559E" transform="translate(271,172)"/>
<path d="M0 0 C7.70724072 2.69168277 14.25019171 6.43168869 21 11 C20.01 11.495 20.01 11.495 19 12 C17.15185511 11.15750698 15.34507635 10.22357876 13.5625 9.25 C7.83850879 6.27380143 2.2788583 4.40903513 -4 3 C-2.68 2.67 -1.36 2.34 0 2 C0 1.34 0 0.68 0 0 Z " fill="#D4E5EE" transform="translate(348,120)"/>
<path d="M0 0 C0.99 0.33 1.98 0.66 3 1 C-9.45224719 12 -9.45224719 12 -12 12 C-12.33 12.99 -12.66 13.98 -13 15 C-15.4375 16.75 -15.4375 16.75 -18 18 C-18.66 17.67 -19.32 17.34 -20 17 C-18.71416016 15.91332031 -18.71416016 15.91332031 -17.40234375 14.8046875 C-16.8511084 14.33836914 -16.29987305 13.87205078 -15.73193359 13.39160156 C-14.53412477 12.3792494 -13.33522742 11.36818379 -12.13525391 10.35839844 C-8.99357287 7.71015269 -5.91214962 5.01820117 -2.875 2.25 C-1.92625 1.5075 -0.9775 0.765 0 0 Z " fill="#35579A" transform="translate(219,157)"/>
<path d="M0 0 C3.5625 0.5 3.5625 0.5 6 2.1875 C7.82203249 4.88410809 7.91680394 6.31126451 7.5625 9.5 C6.5725 9.995 6.5725 9.995 5.5625 10.5 C4.9025 8.19 4.2425 5.88 3.5625 3.5 C-0.06278568 3.29859524 -2.30251708 3.64223235 -5.4375 5.5 C-5.4375 7.15 -5.4375 8.8 -5.4375 10.5 C-5.7675 10.5 -6.0975 10.5 -6.4375 10.5 C-6.65441118 7.31863606 -6.68816255 5.06030453 -5.375 2.125 C-3.4375 0.5 -3.4375 0.5 0 0 Z " fill="#3F629D" transform="translate(299.4375,208.5)"/>
<path d="M0 0 C0 3 0 3 -2.40625 5.69921875 C-3.4299968 6.70302243 -4.4616054 7.69885649 -5.5 8.6875 C-6.02464844 9.19861328 -6.54929688 9.70972656 -7.08984375 10.23632812 C-8.38660904 11.49772708 -9.69246117 12.74977212 -11 14 C-11.99 13.67 -12.98 13.34 -14 13 C-12.04468135 11.0177733 -10.08594334 9.03914884 -8.125 7.0625 C-7.56941406 6.49853516 -7.01382813 5.93457031 -6.44140625 5.35351562 C-2.2265625 1.11328125 -2.2265625 1.11328125 0 0 Z " fill="#31559D" transform="translate(260,120)"/>
<path d="M0 0 C0.66 0.33 1.32 0.66 2 1 C0.10730953 2.91985828 -1.78899017 4.83591037 -3.6875 6.75 C-4.21794922 7.28882813 -4.74839844 7.82765625 -5.29492188 8.3828125 C-11.53886054 14.66505753 -11.53886054 14.66505753 -15 17 C-15.99 16.67 -16.98 16.34 -18 16 C-17.28714844 15.43152344 -16.57429687 14.86304688 -15.83984375 14.27734375 C-10.25557965 9.77535964 -4.92111798 5.22343922 0 0 Z " fill="#E2EEF4" transform="translate(237,184)"/>
<path d="M0 0 C3.68069887 1.53643852 5.98775204 3.78150945 8.75 6.625 C9.54921875 7.44226563 10.3484375 8.25953125 11.171875 9.1015625 C12.07679688 10.04128906 12.07679688 10.04128906 13 11 C9.45086418 11 9.02411922 10.43877595 6.5 8.125 C4.36847741 6.18980185 2.41496646 4.60997764 0 3 C0 2.01 0 1.02 0 0 Z " fill="#5B77A0" transform="translate(362,124)"/>
<path d="M0 0 C0.66 0.33 1.32 0.66 2 1 C-0.51830747 4.12270126 -1.7261549 4.94523098 -5.75 5.75 C-7.35875 5.87375 -7.35875 5.87375 -9 6 C-6.45368965 3.02930459 -3.57769851 1.5224249 0 0 Z " fill="#3A5A98" transform="translate(176,248)"/>
<path d="M0 0 C0 0.99 0 1.98 0 3 C-1.40751221 3.86916887 -2.8264521 4.71985149 -4.25 5.5625 C-5.03890625 6.03816406 -5.8278125 6.51382813 -6.640625 7.00390625 C-9 8 -9 8 -13 7 C-8.71 4.69 -4.42 2.38 0 0 Z " fill="#395B9C" transform="translate(165,198)"/>
<path d="M0 0 C5.26170694 1.41167747 8.72171358 3.74850232 13 7 C12.01 7.495 12.01 7.495 11 8 C8.1796875 6.78515625 8.1796875 6.78515625 4.875 5.0625 C3.77929688 4.49660156 2.68359375 3.93070312 1.5546875 3.34765625 C0.71164062 2.90292969 -0.13140625 2.45820312 -1 2 C-0.67 1.34 -0.34 0.68 0 0 Z " fill="#C1DAE7" transform="translate(356,124)"/>
<path d="M0 0 C0.66 0 1.32 0 2 0 C2 0.66 2 1.32 2 2 C2.8353125 2.3403125 2.8353125 2.3403125 3.6875 2.6875 C6.63246684 4.35896766 8.68156544 6.55276352 11 9 C7.45290062 9 6.98219809 8.42237322 4.4375 6.125 C3.83808594 5.59132812 3.23867188 5.05765625 2.62109375 4.5078125 C1.39057678 3.36328346 0.18830104 2.18830104 -1 1 C-0.67 0.67 -0.34 0.34 0 0 Z " fill="#3E5F9E" transform="translate(319,125)"/>
<path d="M0 0 C2 0 2 0 3.7265625 1.6796875 C4.35304688 2.40414062 4.97953125 3.12859375 5.625 3.875 C6.25664062 4.59429687 6.88828125 5.31359375 7.5390625 6.0546875 C9 8 9 8 9 10 C4.71095765 8.4114658 2.67654474 5.56872632 0 2 C0 1.34 0 0.68 0 0 Z " fill="#335496" transform="translate(397,244)"/>
<path d="M0 0 C2 1.3125 2 1.3125 4 3 C4 3.99 4 4.98 4 6 C-1.75 4.25 -1.75 4.25 -4 2 C-2.68 2 -1.36 2 0 2 C0 1.34 0 0.68 0 0 Z " fill="#35589C" transform="translate(358,120)"/>
<path d="M0 0 C2.38564077 0.57584432 4.66682784 1.22227595 7 2 C7 2.66 7 3.32 7 4 C8.98 4 10.96 4 13 4 C13 4.33 13 4.66 13 5 C7.30702655 5.45543788 4.45738181 4.58764877 0 1 C0 0.67 0 0.34 0 0 Z " fill="#D8E8F1" transform="translate(395,211)"/>
<path d="M0 0 C0.66 0.33 1.32 0.66 2 1 C-2.455 4.465 -2.455 4.465 -7 8 C-7 7.01 -7 6.02 -7 5 C-5.46875 3.61328125 -5.46875 3.61328125 -3.5 2.3125 C-2.8503125 1.87550781 -2.200625 1.43851563 -1.53125 0.98828125 C-1.0259375 0.66214844 -0.520625 0.33601562 0 0 Z " fill="#DAE7F0" transform="translate(298,174)"/>
<path d="M0 0 C3.11198065 1.49836105 6.0534615 3.19933758 9 5 C8.01 5.495 8.01 5.495 7 6 C6.34 5.67 5.68 5.34 5 5 C4.34 5.66 3.68 6.32 3 7 C2.01 4.69 1.02 2.38 0 0 Z " fill="#476192" transform="translate(35,205)"/>
<path d="M0 0 C1 3 1 3 0.0625 5.1875 C-0.4634375 6.0846875 -0.4634375 6.0846875 -1 7 C-5.75 6.25 -5.75 6.25 -8 4 C-6.02 4 -4.04 4 -2 4 C-1.34 2.68 -0.68 1.36 0 0 Z " fill="#395996" transform="translate(160,141)"/>
<path d="M0 0 C-1.49097658 3.7952131 -3.75700849 5.61042731 -7 8 C-7.66 7.67 -8.32 7.34 -9 7 C-7.88121617 5.82737096 -6.75476949 4.66204862 -5.625 3.5 C-4.68527344 2.52546875 -4.68527344 2.52546875 -3.7265625 1.53125 C-2 0 -2 0 0 0 Z " fill="#37599A" transform="translate(81,123)"/>
<path d="M0 0 C2.97 0.33 5.94 0.66 9 1 C9 1.99 9 2.98 9 4 C6.03 3.01 3.06 2.02 0 1 C0 0.67 0 0.34 0 0 Z " fill="#4062A2" transform="translate(122,194)"/>
<path d="M0 0 C0.66 0.33 1.32 0.66 2 1 C-0.84936103 4.00765886 -3.23511958 6.27845212 -7 8 C-6.02133662 6.85373678 -5.04205413 5.70800212 -4.0625 4.5625 C-3.51722656 3.92441406 -2.97195312 3.28632813 -2.41015625 2.62890625 C-1.63204305 1.73008851 -0.84063472 0.84063472 0 0 Z " fill="#3C5E9B" transform="translate(255,187)"/>
<path d="M0 0 C0.99 0.33 1.98 0.66 3 1 C1.71475739 1.86380259 0.42157581 2.71580369 -0.875 3.5625 C-1.59429687 4.03816406 -2.31359375 4.51382813 -3.0546875 5.00390625 C-3.69664062 5.33261719 -4.33859375 5.66132813 -5 6 C-5.66 5.67 -6.32 5.34 -7 5 C-5.90554162 4.13342884 -4.79902219 3.28207276 -3.6875 2.4375 C-3.07261719 1.96183594 -2.45773438 1.48617187 -1.82421875 0.99609375 C-1.22222656 0.66738281 -0.62023437 0.33867187 0 0 Z " fill="#335597" transform="translate(183,186)"/>
<path d="M0 0 C1.65 0 3.3 0 5 0 C5.66 1.32 6.32 2.64 7 4 C4.69 3.34 2.38 2.68 0 2 C0 1.34 0 0.68 0 0 Z " fill="#3B5E9F" transform="translate(86,184)"/>
</svg>
